<svg xmlns="http://www.w3.org/2000/svg" fill="none" viewBox="0 0 511 251"><path fill="#21438f" d="M45.053 125.781H0V8.691h44.595c12.045 0 22.45 2.343 31.217 7.032 8.805 4.65 15.589 11.358 20.353 20.125 4.803 8.728 7.204 19.19 7.204 31.388 0 12.197-2.382 22.678-7.146 31.445-4.765 8.729-11.511 15.437-20.24 20.125-8.728 4.65-19.038 6.975-30.93 6.975ZM31.788 98.795H43.91c5.794 0 10.73-.933 14.808-2.801 4.117-1.868 7.242-5.088 9.376-9.662 2.173-4.574 3.26-10.94 3.26-19.096 0-8.157-1.106-14.522-3.317-19.096-2.172-4.574-5.374-7.795-9.605-9.662-4.193-1.868-9.338-2.802-15.437-2.802H31.788v63.12ZM110.485 125.781V37.963h31.559v87.818h-31.559Zm15.779-96.966c-4.269 0-7.928-1.41-10.977-4.23-3.049-2.821-4.574-6.213-4.574-10.177 0-3.964 1.525-7.357 4.574-10.177C118.336 1.41 121.995 0 126.264 0c4.307 0 7.967 1.41 10.978 4.23 3.049 2.821 4.574 6.214 4.574 10.178 0 3.964-1.525 7.356-4.574 10.176-3.011 2.821-6.671 4.231-10.978 4.231ZM181.634 76.383v49.398h-31.56V37.963h29.959v16.695h.915c1.906-5.565 5.26-9.93 10.062-13.093 4.841-3.164 10.482-4.745 16.924-4.745 6.212 0 11.606 1.429 16.18 4.288 4.612 2.82 8.175 6.708 10.691 11.663 2.554 4.955 3.812 10.615 3.773 16.98v56.03h-31.559V76.383c.038-4.345-1.067-7.756-3.316-10.233-2.211-2.478-5.298-3.717-9.262-3.717-2.592 0-4.86.572-6.804 1.715-1.906 1.106-3.373 2.707-4.402 4.803-1.029 2.058-1.563 4.536-1.601 7.433ZM245.651 125.781V8.691h50.77c8.919 0 16.408 1.2 22.469 3.601 6.098 2.402 10.691 5.794 13.779 10.177 3.125 4.383 4.688 9.548 4.688 15.494 0 4.307-.953 8.233-2.859 11.778-1.868 3.544-4.498 6.517-7.89 8.919-3.392 2.363-7.356 4.002-11.892 4.917v1.143c5.031.19 9.605 1.468 13.722 3.83 4.116 2.326 7.394 5.547 9.834 9.663 2.439 4.078 3.659 8.881 3.659 14.408 0 6.403-1.677 12.101-5.032 17.095-3.316 4.993-8.042 8.919-14.179 11.777-6.136 2.859-13.454 4.288-21.954 4.288h-55.115Zm31.788-25.385h14.865c5.336 0 9.338-.99 12.007-2.973 2.668-2.02 4.002-4.993 4.002-8.919 0-2.744-.629-5.07-1.887-6.975-1.258-1.906-3.049-3.354-5.374-4.345-2.287-.991-5.051-1.487-8.29-1.487h-15.323v24.699Zm0-44.366h13.036c2.782 0 5.241-.438 7.375-1.315 2.134-.877 3.793-2.135 4.974-3.774 1.22-1.677 1.83-3.716 1.83-6.117 0-3.621-1.296-6.384-3.888-8.29-2.592-1.944-5.87-2.916-9.834-2.916h-13.493V56.03ZM345.601 125.781V37.963h31.56v87.818h-31.56Zm15.78-96.966c-4.269 0-7.928-1.41-10.977-4.23-3.05-2.821-4.574-6.213-4.574-10.177 0-3.964 1.524-7.357 4.574-10.177C353.453 1.41 357.112 0 361.381 0c4.307 0 7.966 1.41 10.977 4.23 3.049 2.821 4.574 6.214 4.574 10.178 0 3.964-1.525 7.356-4.574 10.176-3.011 2.821-6.67 4.231-10.977 4.231ZM416.75 8.69v117.091h-31.559V8.691h31.559ZM117.339 248.781H71.601L91.04 131.69h43.909c12.044 0 22.107 2.421 30.187 7.261 8.081 4.841 13.817 11.759 17.21 20.754 3.392 8.996 4.059 19.706 2.001 32.132-1.982 11.968-6.004 22.202-12.064 30.702-6.022 8.499-13.722 14.998-23.098 19.496-9.338 4.497-19.953 6.746-31.846 6.746Zm-9.49-26.986h11.549c5.793 0 10.958-1.01 15.494-3.03 4.574-2.058 8.385-5.488 11.434-10.291 3.088-4.841 5.317-11.454 6.69-19.839 1.296-7.928 1.257-14.046-.115-18.353-1.372-4.345-3.983-7.356-7.832-9.033-3.85-1.715-8.824-2.573-14.923-2.573h-11.777l-10.52 63.119ZM302.669 250.153c-5.565 0-10.348-.914-14.351-2.744-3.964-1.868-6.86-4.688-8.69-8.462-1.791-3.811-2.191-8.614-1.2-14.407.8-4.803 2.305-8.9 4.516-12.292 2.211-3.393 4.955-6.175 8.233-8.348 3.278-2.172 6.956-3.83 11.035-4.974 4.116-1.181 8.461-1.944 13.035-2.287 4.955-.381 8.976-.857 12.064-1.429 3.087-.572 5.393-1.353 6.918-2.344 1.524-.991 2.439-2.325 2.744-4.002v-.229c.343-2.287-.267-4.04-1.83-5.26-1.524-1.22-3.659-1.83-6.403-1.83-2.973 0-5.546.648-7.718 1.944-2.135 1.296-3.602 3.316-4.403 6.061h-29.044c1.22-5.336 3.717-10.253 7.49-14.751 3.811-4.536 8.862-8.157 15.151-10.863 6.327-2.744 13.874-4.116 22.64-4.116 6.251 0 11.74.743 16.466 2.229 4.727 1.449 8.634 3.488 11.721 6.118 3.125 2.592 5.317 5.641 6.575 9.148 1.296 3.468 1.601 7.242.915 11.32l-10.063 60.146h-29.501l2.058-12.349h-.686c-2.287 3.278-4.86 5.927-7.719 7.947a28.784 28.784 0 0 1-9.262 4.402c-3.316.915-6.879 1.372-10.691 1.372Zm13.722-19.896c2.363 0 4.688-.495 6.975-1.486a16.439 16.439 0 0 0 5.889-4.288c1.639-1.868 2.687-4.136 3.144-6.804l1.144-7.318c-.839.343-1.773.667-2.802.972-.991.267-2.039.533-3.144.8a58.406 58.406 0 0 1-3.431.743 304.42 304.42 0 0 1-3.659.686c-2.516.382-4.631 1.011-6.346 1.887-1.715.839-3.049 1.887-4.002 3.145a8.67 8.67 0 0 0-1.773 4.116c-.343 2.402.21 4.269 1.658 5.603 1.487 1.296 3.602 1.944 6.347 1.944ZM416.498 131.69l-19.439 117.091H365.5l19.439-117.091h31.559ZM225.546 250.382c-9.376 0-17.152-1.791-23.326-5.374-6.175-3.621-10.52-8.805-13.036-15.551-2.516-6.785-2.973-14.903-1.372-24.356 1.524-9.072 4.669-17 9.433-23.784 4.803-6.785 10.844-12.064 18.124-15.837 7.319-3.774 15.513-5.66 24.585-5.66 6.632 0 12.445 1.029 17.438 3.087 5.031 2.058 9.128 5.05 12.292 8.976 3.164 3.926 5.298 8.671 6.403 14.236 1.144 5.527 1.144 11.778 0 18.753l-1.143 7.318h-57.145l3.173-16.923c.031-.154.063-.306.098-.457h27.574c.381-2.516.134-4.727-.743-6.632-.839-1.944-2.192-3.45-4.059-4.517-1.83-1.105-4.041-1.658-6.632-1.658-2.592 0-5.032.553-7.319 1.658a16.974 16.974 0 0 0-5.774 4.631c-1.473 1.868-2.489 4.04-3.047 6.518h-21.824l-2.744 17.38h21.297l-.257 1.372c-.457 2.821-.286 5.337.515 7.547.8 2.211 2.191 3.945 4.173 5.203 1.982 1.258 4.536 1.887 7.661 1.887 2.135 0 4.155-.286 6.061-.858 1.944-.61 3.659-1.486 5.145-2.63a13.61 13.61 0 0 0 3.659-4.288h28.816c-2.058 6.099-5.317 11.397-9.777 15.894-4.421 4.46-9.872 7.929-16.351 10.406-6.442 2.439-13.741 3.659-21.898 3.659Z"/><path fill="#21438f" fill-rule="evenodd" d="m220.972 195.267-3.173 16.923h-21.297l2.744-17.38h21.824a16.04 16.04 0 0 0-.098.457Z" clip-rule="evenodd"/><path fill="#21438f" d="M446.276 210.095c-3.08.787-4.313 1.976-6.416 6.268-.829 1.7-1.997 4.08-2.592 5.291-.595 1.232-1.084 2.401-1.084 2.613 0 .362.446.383 8.711.383 9.71 0 9.094-.106 8.287 1.487-.51.999-1.126 1.594-2.167 2.146-.765.382-1.445.404-16.276.404-17.04 0-16.424-.043-19.016 1.338-1.997 1.041-3.038 2.422-5.312 7.012-4.462 9.009-5.035 10.241-4.95 10.496.085.234 1.742.276 8.244.234l8.137-.064.149-.956c.467-2.954 2.167-5.269 4.844-6.608 1.296-.659 1.509-.701 3.612-.701 2.104 0 2.316.042 3.676.722 1.509.744 3.187 2.337 3.867 3.676.213.361.531 1.402.722 2.273l.362 1.594 6.693.042c3.675.043 6.777 0 6.905-.106.191-.106 7.458-14.618 9.71-19.377.637-1.36 1.53-2.444 2.443-3.017.786-.489.871-.489 9.604-.616 10.114-.128 10.05-.128 12.068-1.998.765-.701 1.445-1.891 3.782-6.629 1.594-3.187 2.805-5.885 2.741-6.013-.212-.34-45.384-.233-46.744.106Z"/><path fill="#21438f" d="M466.759 229.303c-.446.382-1.084 1.296-1.615 2.38-.467.977-2.422 4.929-4.313 8.753-2.103 4.292-3.378 7.054-3.251 7.182.106.106 2.932.17 6.778.149l6.565-.064.17-1.147c.362-2.656 2.444-5.376 4.972-6.523 1.084-.51 1.509-.574 3.463-.574 2.104-.021 2.316.021 3.676.701 1.594.786 3.315 2.465 3.91 3.803.17.425.488 1.424.701 2.253l.361 1.487 5.057.064c4.271.042 5.248 0 6.14-.298 2.465-.828 3.527-1.912 5.376-5.652 3.251-6.544 6.225-12.684 6.225-12.897 0-.17-6.268-.233-21.736-.233h-21.714l-.765.616Z"/></svg>
